<svg version="1.2" xmlns="http://www.w3.org/2000/svg" xmlns:xlink="http://www.w3.org/1999/xlink" overflow="visible" preserveAspectRatio="none" viewBox="0 0 602 133.2899932861328" id="Camada_1_1568920966531" width="228" height="49.78"><g transform="translate(1, 1)"><defs><style>.cls-1_1568920966531{fill:#221a17;}</style></defs><path d="M172.8,41.72A4,4,0,0,1,174,40.61a4.36,4.36,0,0,1,1.71-.24h10.72V93H172.88V60.55h-.08l-11.2,13.9h-7.87a3.79,3.79,0,0,1-1.39-.2,2.39,2.39,0,0,1-1-.83L141.18,60.55h-.08V93H127.59V40.37H139a4.36,4.36,0,0,1,1.71.24A3.89,3.89,0,0,1,142,41.72l15.34,19.15h.23Z" class="cls-1_1568920966531" vector-effect="non-scaling-stroke" style="fill: rgb(46, 179, 208);"/><path d="M237.07,40.37V52.05H210.3v8.66h24.39V72.15H210.3v9.21h27.49V93H196.16V40.37Z" class="cls-1_1568920966531" vector-effect="non-scaling-stroke" style="fill: rgb(46, 179, 208);"/><path d="M246.68,93V40.37h19.23a50.9,50.9,0,0,1,14.38,1.83,24.15,24.15,0,0,1,10.41,6A21.69,21.69,0,0,1,295.62,56a30.06,30.06,0,0,1,1.75,10.73,29.7,29.7,0,0,1-1.75,10.68,21.7,21.7,0,0,1-4.92,7.75,24.07,24.07,0,0,1-10.41,6A51.29,51.29,0,0,1,265.91,93Zm18.83-12.15a41.18,41.18,0,0,0,7.87-.64,11.14,11.14,0,0,0,5.4-2.54,10.6,10.6,0,0,0,2.86-4.25,18.67,18.67,0,0,0,1-6.71,19,19,0,0,0-1-6.76,10.54,10.54,0,0,0-2.86-4.29,11.14,11.14,0,0,0-5.4-2.54,42,42,0,0,0-7.87-.64h-4.68V80.89Z" class="cls-1_1568920966531" vector-effect="non-scaling-stroke" style="fill: rgb(46, 179, 208);"/><path d="M345,59.83l-8.18-5a16.91,16.91,0,0,0-4-1.91,14.24,14.24,0,0,0-4.13-.55,10.66,10.66,0,0,0-8.19,3.73,13.53,13.53,0,0,0-2.5,4.41,17.66,17.66,0,0,0-.91,5.92q0,6.75,3.53,10.45t10.13,3.69h.16c.79,0,1.63,0,2.5-.08s1.74-.13,2.58-.24,1.66-.24,2.43-.4,1.44-.31,2-.47a.91.91,0,0,0,.6-.44,1.67,1.67,0,0,0,.12-.67V73.74h-7.31V64.6h18.67a3.17,3.17,0,0,1,1.95.44,2.21,2.21,0,0,1,.51,1.71V93H345.2L343,88.51l-3.9,2.23a21.23,21.23,0,0,1-11.36,3.1,25.53,25.53,0,0,1-10.56-2.11,23.87,23.87,0,0,1-8-5.72,25.2,25.2,0,0,1-5.08-8.58,31.1,31.1,0,0,1-1.79-10.68,28.71,28.71,0,0,1,2.14-11.33,25.31,25.31,0,0,1,5.88-8.58,25.8,25.8,0,0,1,8.74-5.4,30.36,30.36,0,0,1,10.65-1.87,28.16,28.16,0,0,1,7.86,1.08,27.36,27.36,0,0,1,6.84,3,23.94,23.94,0,0,1,5.4,4.52,18.94,18.94,0,0,1,3.49,5.73Z" class="cls-1_1568920966531" vector-effect="non-scaling-stroke" style="fill: rgb(46, 179, 208);"/><path d="M378.33,93H364.19V40.37h23a44.64,44.64,0,0,1,11.08,1.15,15.82,15.82,0,0,1,7.19,3.85,14.9,14.9,0,0,1,3.34,5.25A19.66,19.66,0,0,1,410,57.69a18.52,18.52,0,0,1-2.54,9.81,19.5,19.5,0,0,1-6.2,6.48L413.13,93H399.07a2.22,2.22,0,0,1-2.39-1.35l-8-13.66a4.21,4.21,0,0,0-1-1.35,3.25,3.25,0,0,0-1.51-.24h-7.79Zm13.35-27.8a4,4,0,0,0,1.63-.28,3.66,3.66,0,0,0,1.23-1.15,7.45,7.45,0,0,0,.91-2.63,15.82,15.82,0,0,0,.28-2.78,8.69,8.69,0,0,0-.44-2.74,4.94,4.94,0,0,0-1.07-1.94,5.2,5.2,0,0,0-2.54-1.2,22.63,22.63,0,0,0-4.21-.31h-9.14v13Z" class="cls-1_1568920966531" vector-effect="non-scaling-stroke" style="fill: rgb(46, 179, 208);"/><path d="M468.11,70.32a31.67,31.67,0,0,1-1.43,10.05,18.07,18.07,0,0,1-4.53,7.27,20.65,20.65,0,0,1-7.67,4.57,36.89,36.89,0,0,1-21.69,0,20.52,20.52,0,0,1-7.66-4.57,18.27,18.27,0,0,1-4.57-7.27,30.78,30.78,0,0,1-1.47-10.05V40.37h14.14v31q0,4.53,2.14,6.44a9.18,9.18,0,0,0,3.5,1.75,18,18,0,0,0,4.93.63,17.15,17.15,0,0,0,4.84-.63,9.16,9.16,0,0,0,3.42-1.75q2.15-1.91,2.14-6.44v-31h13.91Z" class="cls-1_1568920966531" vector-effect="non-scaling-stroke" style="fill: rgb(46, 179, 208);"/><path d="M491.15,77.55V93H477V40.37h22.73a39.84,39.84,0,0,1,11,1.27,16.4,16.4,0,0,1,7.15,4q4.53,4.53,4.53,13a23.82,23.82,0,0,1-1.23,8,15.24,15.24,0,0,1-3.54,5.76,16.36,16.36,0,0,1-6.39,3.89,31,31,0,0,1-9.74,1.27Zm13-11.36a3.55,3.55,0,0,0,1.58-.28,3.08,3.08,0,0,0,1.12-1.15,7.85,7.85,0,0,0,.91-2.82,20.63,20.63,0,0,0,.28-3.22,9.93,9.93,0,0,0-.4-2.86,4.63,4.63,0,0,0-1.11-2.06A4.93,4.93,0,0,0,504,52.52a24.45,24.45,0,0,0-4.41-.31h-8.42v14Z" class="cls-1_1568920966531" vector-effect="non-scaling-stroke" style="fill: rgb(46, 179, 208);"/><path d="M581.56,66.75A27.67,27.67,0,0,1,579.37,78a26,26,0,0,1-5.88,8.54,25.63,25.63,0,0,1-8.62,5.44,29.73,29.73,0,0,1-21,0,25.63,25.63,0,0,1-8.62-5.44A26.34,26.34,0,0,1,529.4,78a27.67,27.67,0,0,1-2.19-11.2,27.68,27.68,0,0,1,2.19-11.21,25.8,25.8,0,0,1,14.5-14,29.16,29.16,0,0,1,21,0A26.37,26.37,0,0,1,573.49,47a26,26,0,0,1,5.88,8.54A27.68,27.68,0,0,1,581.56,66.75Zm-14.78,0q0-6.28-3.22-9.82t-9.17-3.53q-6,0-9.18,3.53T542,66.75q0,6.27,3.22,9.77T554.39,80q6,0,9.17-3.49T566.78,66.75Z" class="cls-1_1568920966531" vector-effect="non-scaling-stroke" style="fill: rgb(46, 179, 208);"/><polygon points="48.56 52.57 31.36 52.57 31.36 57.59 53.58 57.59 53.58 35.4 48.56 35.4 48.56 52.57" class="cls-1_1568920966531" vector-effect="non-scaling-stroke" style="fill: rgb(46, 179, 208);"/><rect height="5.03" width="5.02" y="68.19" x="56.35" class="cls-1_1568920966531" vector-effect="non-scaling-stroke" style="fill: rgb(46, 179, 208);"/><rect height="22.21" width="5.02" y="35.4" x="64.15" class="cls-1_1568920966531" vector-effect="non-scaling-stroke" style="fill: rgb(46, 179, 208);"/><rect height="22.21" width="5.02" y="75.99" x="56.35" class="cls-1_1568920966531" vector-effect="non-scaling-stroke" style="fill: rgb(46, 179, 208);"/><rect height="5.03" width="5.02" y="60.39" x="56.35" class="cls-1_1568920966531" vector-effect="non-scaling-stroke" style="fill: rgb(46, 179, 208);"/><rect height="5.03" width="22.22" y="60.39" x="31.36" class="cls-1_1568920966531" vector-effect="non-scaling-stroke" style="fill: rgb(46, 179, 208);"/><polygon points="31.36 81.04 48.56 81.04 48.56 98.21 53.58 98.21 53.58 75.99 31.36 75.99 31.36 81.04" class="cls-1_1568920966531" vector-effect="non-scaling-stroke" style="fill: rgb(46, 179, 208);"/><rect height="5.03" width="22.22" y="68.19" x="31.36" class="cls-1_1568920966531" vector-effect="non-scaling-stroke" style="fill: rgb(46, 179, 208);"/><rect height="22.21" width="5.02" y="35.4" x="56.35" class="cls-1_1568920966531" vector-effect="non-scaling-stroke" style="fill: rgb(46, 179, 208);"/><rect height="5.03" width="22.22" y="68.19" x="71.98" class="cls-1_1568920966531" vector-effect="non-scaling-stroke" style="fill: rgb(46, 179, 208);"/><polygon points="77 35.4 71.98 35.4 71.98 57.59 94.2 57.59 94.2 52.57 77 52.57 77 35.4" class="cls-1_1568920966531" vector-effect="non-scaling-stroke" style="fill: rgb(46, 179, 208);"/><rect height="5.03" width="22.22" y="60.39" x="71.98" class="cls-1_1568920966531" vector-effect="non-scaling-stroke" style="fill: rgb(46, 179, 208);"/><rect height="5.03" width="5.02" y="60.39" x="64.18" class="cls-1_1568920966531" vector-effect="non-scaling-stroke" style="fill: rgb(46, 179, 208);"/><rect height="5.03" width="5.02" y="68.19" x="64.18" class="cls-1_1568920966531" vector-effect="non-scaling-stroke" style="fill: rgb(46, 179, 208);"/><rect height="22.21" width="5.02" y="75.99" x="64.15" class="cls-1_1568920966531" vector-effect="non-scaling-stroke" style="fill: rgb(46, 179, 208);"/><polygon points="71.98 98.21 77 98.21 77 81.04 94.2 81.04 94.2 75.99 71.98 75.99 71.98 98.21" class="cls-1_1568920966531" vector-effect="non-scaling-stroke" style="fill: rgb(46, 179, 208);"/><path d="M62.78,110.48A43.68,43.68,0,1,1,106.45,66.8,43.73,43.73,0,0,1,62.78,110.48Zm0-82.6A38.92,38.92,0,1,0,101.7,66.8,39,39,0,0,0,62.78,27.88Z" class="cls-1_1568920966531" vector-effect="non-scaling-stroke" style="fill: rgb(46, 179, 208);"/></g></svg>