<?xml version="1.0" standalone="no"?>
<svg version="1.1" xmlns="http://www.w3.org/2000/svg" xmlns:xlink="http://www.w3.org/1999/xlink">
	<path transform="scale(0.01221, -0.01221) translate(0, -1638)" style="fill:#d3672b" d="M1132 770q47 -58 53 -100q-245 28 -225 41q-8 -158 43 -260q48 -96 141 -129q198 -70 313 46q101 102 91 273q-12 174 -127 252q-134 91 -338 -19q4 -49 49 -104zM1673 310q109 128 105 319q-3 153 -87 269q-43 60 -179 181q-12 11 -44 18q-2 0 -8 1t-9 1q12 -1 17 -2 q223 -23 458 -176q140 -91 364 -292q-311 -385 -880 -512q184 100 263 193zM1014 328q-83 73 -115 178q-7 23 -2 74q7 68 7 87q-2 106 -108 125q-90 -217 19 -421q50 -92 130 -153q82 -63 179 -80q-242 4 -498 162q-128 79 -402 308q312 362 859 512q32 -5 23 -14 q-7 -7 -42 -21q-96 -36 -104 -47q6 -12 33 -49q22 -29 28 -53q202 134 375 46q152 -76 208 -269q56 -192 -33 -331q-101 -159 -345 -142q-120 9 -212 88zM1103 1243q-332 -47 -613 -226q-109 -68 -254 -186q-199 -163 -196 -223q1 -22 87 -94q24 -20 74 -59q47 -37 64 -51 q404 -341 823 -401q462 -66 915 217q495 309 491 409q-2 47 -194 194q-145 112 -276 194q-463 290 -921 226z"></path>
</svg>