<?xml version="1.0" encoding="utf-8"?>
<!-- Generator: Adobe Illustrator 21.0.0, SVG Export Plug-In . SVG Version: 6.00 Build 0)  -->
<svg version="1.1" id="Camada_1" xmlns="http://www.w3.org/2000/svg" xmlns:xlink="http://www.w3.org/1999/xlink" x="0px" y="0px"
	 viewBox="0 0 54.2 75" style="enable-background:new 0 0 54.2 75;" xml:space="preserve">
<style type="text/css">
	.st0{fill:rgb(163, 163, 163);}
</style>
<path class="st0" d="M4.6,35.9c-0.4-0.4-0.9-0.4-1.3,0c0,0,0,0,0,0c-0.4,0.4-0.4,1,0,1.3c0,0,0,0,0,0l2.2,2.3
	c0.2,0.2,0.4,0.3,0.7,0.3l0,0c0.2,0,0.5-0.1,0.7-0.3l6.8-6.9c0.4-0.4,0.4-1,0-1.3c-0.4-0.4-0.9-0.4-1.3,0c0,0,0,0,0,0l-2.1,2.1
	c-1.1-1.2-2.6-1.8-4.2-1.8c-3.3,0-5.9,2.8-5.9,6.1c0,3.2,2.7,5.9,5.9,5.9c2.6,0,4.9-1.7,5.6-4.2c0.2-0.5-0.1-1-0.6-1.2
	c-0.5-0.1-1,0.1-1.2,0.6c0,0,0,0,0,0C9.2,40.8,7,42,4.9,41.3s-3.3-2.9-2.6-5.1c0.5-1.7,2.1-2.8,3.8-2.8c1.1,0,2.1,0.5,2.9,1.3
	l-2.8,2.8L4.6,35.9z M6.1,47.3c-3.3-0.1-6,2.6-6.1,5.9c-0.1,3.3,2.6,6,5.9,6.1c3.3,0.1,6-2.6,6.1-5.9c0,0,0-0.1,0-0.1
	C12,50,9.3,47.3,6.1,47.3z M6.1,57.3c-2.2,0-4.1-1.8-4.1-4s1.8-4.1,4-4.1c2.2,0,4.1,1.8,4.1,4c0,0,0,0,0,0.1
	C10.1,55.5,8.3,57.3,6.1,57.3z M12,69c0-3.3-2.7-5.8-6-5.8c-3.3,0-5.8,2.7-5.8,6c0,3.2,2.7,5.8,5.9,5.8C9.3,75,12,72.3,12,69z
	 M6.1,73.1c-2.2,0-4.1-1.8-4.1-4c0-2.2,1.8-4.1,4-4.1c2.2,0,4.1,1.8,4.1,4c0,0,0,0,0,0.1C10.1,71.3,8.3,73.1,6.1,73.1L6.1,73.1z
	 M53.2,52h-38c-0.6,0.1-1.1,0.6-1.2,1.3c0.1,0.5,0.7,0.8,1.2,0.7h38c0.4,0.1,0.9-0.2,1-0.6c0,0,0-0.1,0-0.1
	C54.2,52.7,53.8,52.1,53.2,52z M53.2,36h-39c-0.6,0-1,0.4-1,1s0.4,1,1,1h39c0.6,0,1-0.4,1-1S53.7,36,53.2,36z M53.2,68h-38
	c-0.6,0-1.1,0.5-1.2,1c0,0.5,0.4,1,0.9,1c0,0,0,0,0,0h38.3c0.5,0,0.9-0.4,0.9-1c0,0,0,0,0,0C54.2,68.5,53.7,68,53.2,68z M53.2,16
	h-52c-0.6,0-1,0.4-1,1s0.4,1,1,1h52c0.6,0,1-0.4,1-1S53.7,16,53.2,16z M53.2,10h-52c-0.6,0-1,0.4-1,1s0.4,1,1,1h52c0.6,0,1-0.4,1-1
	S53.7,10,53.2,10z M53.2,4h-52c-0.6,0-1,0.4-1,1s0.4,1,1,1h52c0.6,0,1-0.4,1-1S53.7,4,53.2,4z M53.2,2h-52c-0.6,0-1,0.4-1,1
	s0.4,1,1,1h52c0.6,0,1-0.4,1-1S53.7,2,53.2,2z M53.2,0h-52c-0.6,0-1,0.4-1,1s0.4,1,1,1h52c0.6,0,1-0.4,1-1S53.7,0,53.2,0z"/>
</svg>
