<svg id="BGs" xmlns="http://www.w3.org/2000/svg" viewBox="0 0 64 64"><defs><style>.cls-1{fill:#7fa7b9;}</style></defs><title>DÚVIDAS - Like Preenchido</title><path class="cls-1" d="M17.67,27.2H8.84A2.87,2.87,0,0,0,6,30V49.67a2.87,2.87,0,0,0,2.84,2.84h8.83a2.87,2.87,0,0,0,2.84-2.84V30a2.87,2.87,0,0,0-2.84-2.84Z"/><path class="cls-1" d="M56.42,34.79A7.59,7.59,0,0,0,58,30a6.85,6.85,0,0,0-6.76-6.77H44a.41.41,0,0,1,0-.09,5.72,5.72,0,0,0,.32-.59c.39-.72.68-1.31.88-1.78a13.2,13.2,0,0,0,.63-2,10.53,10.53,0,0,0,.31-2.55c0-.5,0-.91,0-1.22a13.79,13.79,0,0,0-.16-1.48,8.72,8.72,0,0,0-.42-1.71,8.49,8.49,0,0,0-.82-1.56,5.25,5.25,0,0,0-1.48-1.49,8,8,0,0,0-2.08-.91,10.42,10.42,0,0,0-2.78-.35,2.79,2.79,0,0,0-2,.84,6.07,6.07,0,0,0-1.21,1.78,9.56,9.56,0,0,0-.66,1.75c-.11.47-.25,1.11-.39,1.9s-.32,1.46-.41,1.83A8.65,8.65,0,0,1,33.31,17a4,4,0,0,1-.76,1.2A45.89,45.89,0,0,0,29.37,22c-1,1.28-2,2.51-3.05,3.65-1.29,1.42-1.75,1.53-1.75,1.53a2.9,2.9,0,0,0-1.88.89,2.76,2.76,0,0,0-.8,2V49.67a2.71,2.71,0,0,0,.85,2,2.93,2.93,0,0,0,2,.85,20.54,20.54,0,0,1,4.59,1.3c1.58.53,2.82.94,3.71,1.22s2.2.59,3.82.91a23.56,23.56,0,0,0,4.59.49h4c3,0,5.22-1,6.7-2.7A8.1,8.1,0,0,0,53.82,48a6.88,6.88,0,0,0,1.6-3,7.2,7.2,0,0,0,.11-3.65,7.17,7.17,0,0,0,1.24-4.37A7.55,7.55,0,0,0,56.42,34.79ZM55,37.4v-.59s0,.11,0,.16S55,37.26,55,37.4Z"/></svg>