<svg id="BGs" xmlns="http://www.w3.org/2000/svg" viewBox="0 0 64 64"><defs><style>.cls-1{fill:#7fa7b9;}</style></defs><title>DÚVIDAS - Like</title><path class="cls-1" d="M57,34.9A8.19,8.19,0,0,0,58.5,30a7.34,7.34,0,0,0-7.26-7.27H44.88c.37-.7.66-1.29.86-1.76A14.83,14.83,0,0,0,46.39,19a11,11,0,0,0,.33-2.67c0-.5,0-.92,0-1.23s-.07-.84-.17-1.55a8.89,8.89,0,0,0-.44-1.81,8.67,8.67,0,0,0-.88-1.65A5.63,5.63,0,0,0,43.6,8.41a8.08,8.08,0,0,0-2.21-1,10.6,10.6,0,0,0-2.92-.37,3.29,3.29,0,0,0-2.35,1A6.85,6.85,0,0,0,34.8,10a10.4,10.4,0,0,0-.68,1.84c-.12.47-.26,1.13-.4,1.92s-.31,1.44-.4,1.82a8.17,8.17,0,0,1-.47,1.26,3.27,3.27,0,0,1-.66,1.05A47.08,47.08,0,0,0,29,21.68q-1.47,1.92-3,3.62a7.25,7.25,0,0,1-1.5,1.38,3.37,3.37,0,0,0-2.12,1,3.26,3.26,0,0,0-.94,2.3V49.67a3.24,3.24,0,0,0,1,2.35,3.43,3.43,0,0,0,2.3,1,19.32,19.32,0,0,1,4.45,1.28c1.59.53,2.83.94,3.73,1.22s2.22.59,3.86.92a24.59,24.59,0,0,0,4.69.5h4c3.13,0,5.51-1,7.08-2.88a8.49,8.49,0,0,0,1.86-5.92,7.38,7.38,0,0,0,1.57-3,7.73,7.73,0,0,0,.16-3.69A7.54,7.54,0,0,0,57.27,37,7.94,7.94,0,0,0,57,34.9Zm-2.84.15A6.1,6.1,0,0,1,54.52,37a5,5,0,0,1-1,3.32l-.43.56.21.67a4.91,4.91,0,0,1,0,2.84A4.49,4.49,0,0,1,52,46.61l-.48.46.06.65a6,6,0,0,1-1.19,4.56c-1,1.24-2.68,1.87-5,1.9H41.42a21.41,21.41,0,0,1-4.15-.45c-1.54-.31-2.75-.59-3.59-.85s-2.1-.68-3.65-1.2c-3.52-1.23-4.66-1.41-5.24-1.42a.68.68,0,0,1-.48-.21.47.47,0,0,1-.16-.38V30a.49.49,0,0,1,.16-.38.65.65,0,0,1,.44-.22c.91-.07,1.85-.72,3.24-2.25,1.09-1.19,2.15-2.47,3.16-3.79,1.36-1.74,2.37-2.93,3-3.56a6,6,0,0,0,1.24-1.9,11,11,0,0,0,.61-1.7c.1-.39.24-1,.44-1.94.13-.76.25-1.36.36-1.78a7.39,7.39,0,0,1,.51-1.35A3.93,3.93,0,0,1,38.07,10a.51.51,0,0,1,.4-.18,7.88,7.88,0,0,1,2.16.27,5.42,5.42,0,0,1,1.46.62,2.93,2.93,0,0,1,.83.85,6.28,6.28,0,0,1,.6,1.11,6.38,6.38,0,0,1,.3,1.25A10.78,10.78,0,0,1,44,15.14c0,.3,0,.68,0,1.15a8,8,0,0,1-.25,2,12.49,12.49,0,0,1-.51,1.63c-.18.41-.44.95-.81,1.65l-.27.48a6,6,0,0,0-.42.85,6.79,6.79,0,0,0-.29.87l-.51,1.75H51.24A4.61,4.61,0,0,1,55.75,30,5.33,5.33,0,0,1,54.4,33.7l-.52.6Z"/><path class="cls-1" d="M17.67,26.7H8.84A3.36,3.36,0,0,0,5.5,30V49.67A3.38,3.38,0,0,0,8.84,53h8.83A3.36,3.36,0,0,0,21,49.67V30a3.35,3.35,0,0,0-3.34-3.34ZM18.26,30V49.67a.5.5,0,0,1-.18.4.49.49,0,0,1-.41.18H8.84a.52.52,0,0,1-.41-.17.53.53,0,0,1-.18-.41V30a.52.52,0,0,1,.18-.41.53.53,0,0,1,.41-.18h8.83a.52.52,0,0,1,.41.18A.51.51,0,0,1,18.26,30Z"/></svg>