<svg xmlns="http://www.w3.org/2000/svg" viewBox="0 0 39 28"><defs><style>.cls-1{fill:#8c8c8c;}</style></defs><title>Ativo 10</title><g id="Camada_2" data-name="Camada 2"><g id="Camada_1-2" data-name="Camada 1"><rect class="cls-1" x="3.5" y="21.5" width="18" height="2"/><rect class="cls-1" x="3.5" y="17.5" width="18" height="2"/><rect class="cls-1" x="3.5" y="13.5" width="18" height="2"/><rect class="cls-1" x="3.5" y="9.5" width="18" height="2"/><path class="cls-1" d="M0,0V28H39V0ZM2,26V6H37V26Z"/><path class="cls-1" d="M31.7,10.29a3.51,3.51,0,0,0-1.11-.62,4.51,4.51,0,0,0-1.4-.22,5.1,5.1,0,0,0-1.07.11,6.2,6.2,0,0,0-.92.3,5.35,5.35,0,0,0-1.44,1l.45.72a.44.44,0,0,0,.38.22.53.53,0,0,0,.29-.15,4.52,4.52,0,0,1,.46-.31A3.83,3.83,0,0,1,28,11a3.26,3.26,0,0,1,1-.14,2.64,2.64,0,0,1,.81.12,2.33,2.33,0,0,1,.66.36,1.89,1.89,0,0,1,.44.57,1.8,1.8,0,0,1,.16.75,2.07,2.07,0,0,1-.22,1,2.87,2.87,0,0,1-.54.75,5.78,5.78,0,0,1-.71.6l-.71.55a2.91,2.91,0,0,0-.54.58,1.2,1.2,0,0,0-.22.72v.1l.12,1.59h1.16l.18-1.46a1,1,0,0,1,.28-.58,6.19,6.19,0,0,1,.58-.52l.73-.55a4.24,4.24,0,0,0,.73-.68,3.54,3.54,0,0,0,.54-.93,3.33,3.33,0,0,0,.22-1.25,2.91,2.91,0,0,0-1-2.27Z"/><path class="cls-1" d="M29.67,21.41a1,1,0,0,0-.38-.26,1.07,1.07,0,0,0-.47-.1,1.1,1.1,0,0,0-.47.1,1.08,1.08,0,0,0-.37.26,1,1,0,0,0-.25.38,1.23,1.23,0,0,0-.09.47,1.2,1.2,0,0,0,.34.85,1.05,1.05,0,0,0,.37.25,1.27,1.27,0,0,0,.47.09,1.23,1.23,0,0,0,.47-.09,1,1,0,0,0,.38-.25,1.22,1.22,0,0,0,.26-.38,1.19,1.19,0,0,0,.09-.47,1.23,1.23,0,0,0-.09-.47A1,1,0,0,0,29.67,21.41Z"/></g></g></svg>