<svg id="Capa_1" data-name="Capa 1" xmlns="http://www.w3.org/2000/svg" viewBox="0 0 55.25 55.25"><defs><style>.cls-1{fill:#858585;}</style></defs><title>prancheta-edit</title><path class="cls-1" d="M.69,55a.66.66,0,0,1-.27-.06.65.65,0,0,1-.23-.15.58.58,0,0,1-.13-.21A.8.8,0,0,1,0,54.3c0-.08,0-.13,0-.17L3.54,39.28a1.11,1.11,0,0,1,.12-.23l.08-.11,36.05-36A8.7,8.7,0,1,1,52.1,15.19L16,51.26a1,1,0,0,1-.21.13l-.13.06L.85,55Zm3.25-4.66a.67.67,0,0,1,.5.21.71.71,0,0,1,0,1L2.93,53l12-2.85.55-5L10,45.8H9.81l-.23-.07-.09-.06a.36.36,0,0,1-.11-.1.27.27,0,0,1-.07-.08l-.07-.13,0-.11,0-.1V45l.61-5.48-5,.56-2.85,12,1.51-1.5A.67.67,0,0,1,3.94,50.34ZM38.87,21.07a.68.68,0,0,1,.7.7.68.68,0,0,1-.2.49L16.91,44.72l-.46,4.14L45,20.36,34.63,10,6.13,38.53l4.14-.46L32.72,15.62a.7.7,0,1,1,1,1L11.26,39.06l-.59,5.25,5.25-.58L38.38,21.27A.68.68,0,0,1,38.87,21.07ZM35.62,9,45.94,19.37l1.84-1.84L37.46,7.2Zm2.83-2.83L48.77,16.54l1.84-1.84L40.29,4.37ZM46,1.75A7.24,7.24,0,0,0,41.58,3.2l-.28.21L51.58,13.69l.2-.28A7.28,7.28,0,0,0,46,1.75Z"/></svg>