<?xml version="1.0" encoding="utf-8"?>
<!-- Generator: Adobe Illustrator 23.1.0, SVG Export Plug-In . SVG Version: 6.00 Build 0)  -->
<svg version="1.1" id="Camada_1" xmlns="http://www.w3.org/2000/svg" xmlns:xlink="http://www.w3.org/1999/xlink" x="0px" y="0px"
	 viewBox="0 0 14.4 12" style="enable-background:new 0 0 14.4 12;" xml:space="preserve">
<style type="text/css">
	.st0{fill:#838383;}
</style>
<g>
	<rect x="11.4" y="5.6" vector-effect="non-scaling-stroke" class="st0" width="0.5" height="0.6"/>
	<g>
		<path vector-effect="non-scaling-stroke" class="st0" d="M14.1,0.1h-0.2h-2.2H2.8H0.6H0.3H0.1v0.3v0.4v2.5V6v2.8v2.4v0.4v0.3h0.2
			h0h2.4h2.7c0,0,0,0,0,0h0.2v-0.5H5.5H5.1H3V8.8V6V3.2V0.6h8.3v2.6V6c0,0.2,0.1,0.3,0.2,0.3h2.2v1.8v0.2v0.4h0.5V8.3V8.1V6V3.2V0.7
			V0.4V0.1H14.1z M2.5,11.4h-2v-0.1V9.1h2V11.4z M2.5,8.6h-2V6.3h2V8.6z M2.5,5.7h-2V3.4h2V5.7z M2.5,2.9h-2V0.7V0.6h2V2.9z
			 M13.8,5.7h-2V3.4h2V5.7z M13.8,0.7v2.2h-2V0.6h2V0.7z"/>
		<path vector-effect="non-scaling-stroke" class="st0" d="M5.5,12L0,12V0h14.4v11.6h-0.7V6.4h-2.1c-0.2,0-0.3-0.2-0.3-0.4V0.7H3.1
			v10.6h11.3V12H5.5C5.5,12,5.5,12,5.5,12z M0.2,11.8h5.3h0h0.1v-0.3H2.9v-11h8.5V6c0,0.1,0.1,0.2,0.1,0.2h2.3v2.5h0.3V0.2h-14
			L0.2,11.8L0.2,11.8z M2.6,11.5H0.5V9h2.2V11.5z M0.7,11.3h1.8V9.2H0.7V11.3z M2.6,8.7H0.5V6.2h2.2V8.7z M0.7,8.5h1.8V6.3H0.7V8.5z
			 M13.9,5.8h-2.2V3.3h2.2V5.8z M12,5.6h1.8V3.5h-1.8L12,5.6L12,5.6z M2.6,5.8H0.5V3.3h2.2V5.8z M0.7,5.6h1.8V3.5H0.7V5.6z M13.9,3
			h-2.2V0.5h2.2V3z M12,2.8h1.8V0.7h-1.8L12,2.8L12,2.8z M2.6,3H0.5V0.5h2.2V3z M0.7,2.8h1.8V0.7H0.7V2.8z"/>
	</g>
	<path vector-effect="non-scaling-stroke" class="st0" d="M9.2,6c0-0.1,0-0.2-0.1-0.2L6.3,4C6.3,4,6.2,4,6.1,4C6,4.1,6,4.1,6,4.2
		v3.6C6,7.9,6,8,6.1,8.1c0,0,0.1,0,0.1,0c0.1,0,0.1,0,0.1-0.1L9,6.2C9.1,6.2,9.2,6.1,9.2,6z M6.5,7.3V4.7l2,1.3L6.5,7.3z"/>
	<rect x="11.3" y="0" class="st0" width="0.7" height="11.8"/>
	<rect x="11.4" y="8.5" class="st0" width="2.8" height="0.7"/>
</g>
</svg>
