<svg id="Camada_1" data-name="Camada 1" xmlns="http://www.w3.org/2000/svg" viewBox="0 0 175 129"><defs><style>.cls-1{fill:#858585;}</style></defs><title>icone-historico-de-versao</title><g id="Camada_1-2" data-name="Camada 1-2"><path class="cls-1" d="M94,1A63.8,63.8,0,0,0,30.23,64.47,72.73,72.73,0,0,0,32.5,84.28l-8.57-5a4.52,4.52,0,0,0-4.56,7.81l.07,0,20.13,11.7h.32a3.11,3.11,0,0,0,.63.32h3.36l.54-.5.46-.32.45-.45a4.73,4.73,0,0,0,.32-.46v-.22h0v-.37l8.3-20a4.44,4.44,0,1,0-8.26-3.27L41.57,83.74a67.55,67.55,0,0,1-2.41-18.87,54.87,54.87,0,1,1,55,54.74H94a4.54,4.54,0,1,0,0,9.07A63.85,63.85,0,0,0,94,1Z"/><path class="cls-1" d="M92.31,73.53a4.84,4.84,0,0,0,1.41.28H94a4.51,4.51,0,0,0,1.54-.28h.36a4.84,4.84,0,0,0,1-.68h.22L125,44.51a4.54,4.54,0,0,0-6.31-6.3L93,64,69.86,54.26a4.54,4.54,0,0,0-3.44,8.26l25.85,11Z"/></g></svg>