<svg xmlns="http://www.w3.org/2000/svg" viewBox="0 0 8.27 9.12"><defs><style>.cls-1{fill:#fff;}</style></defs><title>Ativo 1</title><g id="Camada_2" data-name="Camada 2"><g id="BGs_1569526306542" data-name="BGs 1569526306542"><path class="cls-1" d="M4.13,0C1.85,0,0,1.44,0,3.23A2.6,2.6,0,0,0,.44,4.67a.6.6,0,0,0,.78.2.61.61,0,0,0,.29-.36.54.54,0,0,0-.07-.43,1.46,1.46,0,0,1-.27-.86c0-1.16,1.33-2.11,3-2.11s3,1,3,2.11a1.77,1.77,0,0,1-.67,1.34,3.46,3.46,0,0,1-1.82.72,1.12,1.12,0,0,0-1,1.07v.57a.59.59,0,1,0,1.17,0V6.39h0a4.49,4.49,0,0,0,2.47-1A2.85,2.85,0,0,0,8.27,3.21C8.27,1.44,6.41,0,4.13,0Z"/><path class="cls-1" d="M4.15,7.59a.77.77,0,1,0,.76.77h0A.76.76,0,0,0,4.15,7.59Z"/></g></g></svg>