<svg id="Camada_1" data-name="Camada 1" xmlns="http://www.w3.org/2000/svg" viewBox="0 0 175 129"><defs><style>.cls-1{fill:#8c8c8c;}</style></defs><title>icone-imagem</title><g id="Camada_1-2" data-name="Camada 1-2"><path class="cls-1" d="M166.44.38H8.56A2.53,2.53,0,0,0,6,2.88.14.14,0,0,0,6,3V126.41A2.54,2.54,0,0,0,8.46,129h158a2.54,2.54,0,0,0,2.59-2.5.14.14,0,0,0,0-.09V3A2.54,2.54,0,0,0,166.54.38Zm-12.9,108L118,71.6a1.06,1.06,0,0,0-1.46,0L91.91,93.28,60.5,54.46a1.05,1.05,0,0,0-.86-.41,1,1,0,0,0-.82.46l-37.27,50V15.88h132Z"/><path class="cls-1" d="M114.5,53.19a12.68,12.68,0,1,0-12.68-12.68h0A12.68,12.68,0,0,0,114.5,53.19Z"/></g></svg>