<?xml version="1.0" encoding="utf-8"?>
<!-- Generator: Adobe Illustrator 23.1.0, SVG Export Plug-In . SVG Version: 6.00 Build 0)  -->
<svg version="1.1" id="Camada_1" xmlns="http://www.w3.org/2000/svg" xmlns:xlink="http://www.w3.org/1999/xlink" x="0px" y="0px"
	 viewBox="0 0 14.8 12" style="enable-background:new 0 0 14.8 12;" xml:space="preserve">
<style type="text/css">
	.st0{fill:#838383;}
</style>
<g>
	<path vector-effect="non-scaling-stroke" class="st0" d="M5.7,3.6c0-0.9-0.7-1.6-1.5-1.6S2.6,2.8,2.6,3.6s0.7,1.6,1.5,1.6
		C5,5.2,5.7,4.5,5.7,3.6z M3.4,3.6c0-0.4,0.4-0.8,0.8-0.8S5,3.2,5,3.6S4.6,4.4,4.2,4.4S3.4,4.1,3.4,3.6z"/>
	<path vector-effect="non-scaling-stroke" class="st0" d="M2.1,9.8l4.1-3.7L8.1,8l0.5-0.5L8.1,7l2.1-2.4c0.4,0.4,0.9,0.8,1.3,1.2
		c0.5,0.4,0.9,0.9,1.4,1.3L13,7.2l0.1-0.1c0.1-0.1,0.1-0.1,0.2-0.2c0.1-0.1,0.1-0.1,0.2-0.2l0.1-0.1L10.7,4
		c-0.1-0.1-0.5-0.5-0.5-0.5l-0.1-0.1L7.5,6.4L6.2,5L6.1,5.1C5.8,5.3,5.7,5.4,5.7,5.5L1.6,9.2L2.1,9.8z"/>
	<polygon vector-effect="non-scaling-stroke" class="st0" points="0,0 0,12 14.8,12 14.8,11.3 0.8,11.3 0.8,0.8 14.1,0.8 14.1,11.9 
		14.8,11.9 14.8,0 	"/>
</g>
</svg>
