<svg id="Camada_1" data-name="Camada 1" xmlns="http://www.w3.org/2000/svg" viewBox="0 0 175 129"><defs><style>.cls-1{fill:#8c8c8c;}</style></defs><title>icone-refazer-tabelas</title><g id="Camada_1-2" data-name="Camada 1-2"><path class="cls-1" d="M139.88,98.87a3.45,3.45,0,0,0-3.91,2.72,23.32,23.32,0,0,1-22.53,20.19,24.15,24.15,0,0,1-22.35-16h9.84V98.87H81.25v20.61h6.57V114a30.27,30.27,0,0,0,25.62,14.67A29.84,29.84,0,0,0,142.68,103,3.73,3.73,0,0,0,139.88,98.87Z"/><path class="cls-1" d="M138.36,78.23a30,30,0,0,0-24.74-13.8,31.51,31.51,0,0,0-29.94,23,3.45,3.45,0,0,0,0,2.49,3.71,3.71,0,0,0,2,1.61,1.3,1.3,0,0,0,.87,0,6.45,6.45,0,0,0,1.75-.46A3.62,3.62,0,0,0,89.85,89a24.83,24.83,0,0,1,23.59-18.08,23,23,0,0,1,21,13.8h-9.19v6.85h19.68V71.37h-6.58Z"/><path class="cls-1" d="M76.42,101.36H71.59V54.45h74.77v13.8h5.52V.87H23.12V108h53.3ZM103.5,47.78H71.59V27.69H103.5Zm42.86,0H108.84V27.69h37.52ZM28.5,7.59H146.36V21H28.5Zm37.71,93.77H28.5V81.26H66.21Zm0-26.81H28.5V54.45H66.21Zm0-26.77H28.5V27.69H66.21Z"/></g></svg>