<svg id="Camada_1" data-name="Camada 1" xmlns="http://www.w3.org/2000/svg" viewBox="0 0 175 129"><defs><style>.cls-1{fill:#858585;}</style></defs><title>icone-refazer-videos</title><g id="Camada_1-2" data-name="Camada 1-2"><rect class="cls-1" x="125.04" y="51.16" width="4.44" height="5.55"/><path class="cls-1" d="M149.3,1.23H23.48V107.55H74.33v-4.62H49.73V5.86H124.8V54.39a2.14,2.14,0,0,0,1.93,2.31H146.9V78.89h4.39V1.23ZM45.71,102.88H27.92V82.08H45.71Zm0-25.42H27.92V56.7H45.71Zm0-25.38H27.92V31.28H45.71Zm0-25.42H27.92V5.86H45.71Zm101.7,25.42h-18V31.28h17.65Zm0-45.3V26.66h-18V5.86h17.65Z"/><path class="cls-1" d="M72.06,108.43,22.6,108.2V.31H152.4V80h-6.19V57.63h-19a3.11,3.11,0,0,1-3.1-3.1.71.71,0,0,1,0-.14V6.78H50.84V102h24.5v6.24H72.06Zm-47.7-1.8H73.45v-2.78H49.09V4.93h76.82V54.39a1.45,1.45,0,0,0,1.34,1.39H148V78.15h2.68V1.93H24.36Zm22.09-2.78H27.22V81.2H46.64ZM28.79,102H44.7V82.77H28.79ZM46.45,78.43H27.22V55.78H46.64ZM28.79,76.58H44.7V57.4H28.79ZM148,53H128.55V30.35H148ZM130.3,51.16h15.91V32H130.12V51.16ZM46.45,53H27.22V30.35H46.64ZM28.79,51.16H44.7V32H28.79ZM148,27.58H128.55V4.93H148ZM130.3,25.73h15.91V6.78H130.12v19ZM46.45,27.58H27.22V4.93H46.64ZM28.79,25.73H44.7V6.78H28.79Z"/><path class="cls-1" d="M138.72,100.11a2.23,2.23,0,0,0-2.62,1.73.5.5,0,0,1,0,.12,24.49,24.49,0,0,1-23.85,21.26,25.56,25.56,0,0,1-24.08-18.49h10.4v-4.62H80.89V118.6h4.62v-8.78a29.71,29.71,0,0,0,26.95,18,28.74,28.74,0,0,0,28-25,2.16,2.16,0,0,0-1.45-2.7A1.63,1.63,0,0,0,138.72,100.11Z"/><path class="cls-1" d="M112.23,129a30.52,30.52,0,0,1-25.84-14.79v5.54H79.78V99H99.66v6.94H89.72a24.22,24.22,0,0,0,22.51,16.18A23.48,23.48,0,0,0,135,101.73,3.53,3.53,0,0,1,139,99h0a3.79,3.79,0,0,1,2.63,4.16A30.18,30.18,0,0,1,112.23,129ZM84.17,104.5l2.22,4.85a28.89,28.89,0,0,0,26.07,17.57,27.72,27.72,0,0,0,26.9-24,1.27,1.27,0,0,0-.87-1.38c-.65-.24-1.11.23-1.34.92a25.8,25.8,0,0,1-24.92,22.19A26.78,26.78,0,0,1,87,105.43l-.42-1.85H97.44v-2.32H82v16.18h2.17Z"/><path class="cls-1" d="M138.16,82.31a28.83,28.83,0,0,0-26-16.87A30.65,30.65,0,0,0,83,87.86a2.21,2.21,0,0,0,1.5,2.75l.07,0a2.08,2.08,0,0,0,2.59-1.4c0-.07,0-.14.05-.22a26.33,26.33,0,0,1,25-19.36A24.59,24.59,0,0,1,135,85.83H124.8v4.62h17.66V72h-4.3V82.31Z"/><path class="cls-1" d="M85.28,92a1.27,1.27,0,0,1-.88-.23,3.64,3.64,0,0,1-2-1.62,3.82,3.82,0,0,1,0-2.54,31.89,31.89,0,0,1,30.27-23.35,30.35,30.35,0,0,1,24.92,13.87V71.22h6.61V92H124.3V85.09h9.24a23.37,23.37,0,0,0-21.17-13.87A25.14,25.14,0,0,0,88.52,89.48,3.68,3.68,0,0,1,87,91.56,6.58,6.58,0,0,1,85.28,92Zm27-25.42A29.17,29.17,0,0,0,84.17,88.14v.92c0,.23.46.46.7.46h.87a1.11,1.11,0,0,0,.42-.69A27.74,27.74,0,0,1,112.23,69a26.21,26.21,0,0,1,23.85,16.88l.65,1.61H126.14v2.31h15.44V73.58h-2.22V87.21l-2-4.39A28.24,28.24,0,0,0,112.23,66.6Z"/><path class="cls-1" d="M105.16,54.39a2.1,2.1,0,0,0-1.11-1.85L79.78,36.36a2,2,0,0,0-2.22,0,2.53,2.53,0,0,0-1.11,2.08V70.8a2.5,2.5,0,0,0,1.11,2.08,1.88,1.88,0,0,0,1.11.23,1.76,1.76,0,0,0,1.11-.46l24.27-16.13A2.87,2.87,0,0,0,105.16,54.39Zm-24.27,12v-24l17.84,12Z"/></g></svg>