<svg id="Camada_1" data-name="Camada 1" xmlns="http://www.w3.org/2000/svg" viewBox="0 0 175 129"><defs><style>.cls-1{fill:#858585;}</style></defs><title>icone-refazer-imagem</title><g id="Camada_1-2" data-name="Camada 1-2"><path class="cls-1" d="M146.46,100.38a3.15,3.15,0,0,0-2.43.41,3,3,0,0,0-1.28,2.24,22.84,22.84,0,0,1-22.39,19.42A23.84,23.84,0,0,1,98.15,107h9.78v-6.63H88.37v19.83H94.9v-5.12a30.68,30.68,0,0,0,25.46,14.13,29.2,29.2,0,0,0,28.7-24.5,2.86,2.86,0,0,0-.23-2.65A3.86,3.86,0,0,0,146.46,100.38Z"/><path class="cls-1" d="M144.72,80.27a29.72,29.72,0,0,0-24.59-13,31.19,31.19,0,0,0-29.8,22.08,3.29,3.29,0,0,0,2.06,4.17l.09,0h.87a4,4,0,0,0,1.55-.45,2.73,2.73,0,0,0,1.56-1.74A24.69,24.69,0,0,1,119.9,74a22.85,22.85,0,0,1,20.66,13.26h-9.14v6.62H151V74h-6.54Z"/><path class="cls-1" d="M72.51,32a13.3,13.3,0,0,0-26.33-3.81,13.51,13.51,0,0,0,0,3.81A13.26,13.26,0,0,0,59.25,45.4h.19A13.73,13.73,0,0,0,72.51,32ZM52.67,32a6.77,6.77,0,1,1,6.77,6.86A6.87,6.87,0,0,1,52.67,32Z"/><path class="cls-1" d="M41.61,84.93l35.47-32L92.94,69.39l4.57-4.57-3.93-3.93,18.28-21c3.7,3.52,7.63,7,11.29,10.61s8.09,7.49,12,11.24l.87.87.69-.87L138,60.21c.45-.64,1.09-1.1,1.5-1.79l.69-.87-24-22.85c-.41-.45-4.11-4-4.11-4l-.87-.69L88.37,55.45l-11.75-12-.87.64a23.44,23.44,0,0,0-3.47,3.57L37,79.86Z"/><polygon class="cls-1" points="23.33 0.84 23.33 104.54 80.55 104.54 80.55 97.96 29.87 97.96 29.87 7.46 145.13 7.46 145.13 62.63 151.67 62.63 151.67 0.84 23.33 0.84"/></g></svg>