<svg id="Camada_1" data-name="Camada 1" xmlns="http://www.w3.org/2000/svg" viewBox="0 0 175 129"><defs><style>.cls-1{fill:#8c8c8c;}</style></defs><title>icone-tooltip</title><g id="Camada_1-2" data-name="Camada 1-2"><path class="cls-1" d="M130.66,66.05,104.43,49.56l26.23-16.4a2.1,2.1,0,0,0,.93-1.25,2.21,2.21,0,0,0,0-1.52l-8-12.89a2,2,0,0,0-2.72-.69h0L95.79,32.51V2.44a2,2,0,0,0-2-2h-15a2,2,0,0,0-2,1.94h0V32.51L51.86,16.85a1.9,1.9,0,0,0-2.62.54v0h0l-7.81,13a2.21,2.21,0,0,0,0,1.52,2,2,0,0,0,.42,1.25L68,49.56,41.84,66.05a2.09,2.09,0,0,0-.69,1.48,2.1,2.1,0,0,0,0,1.52L48.91,82a1.84,1.84,0,0,0,2.5.74l.08,0h0L76.62,67V97a2,2,0,0,0,2,2H93.39a2,2,0,0,0,2-2h0V66.69l24.94,15.66a1.93,1.93,0,0,0,2.69-.54l0-.06h0l7.71-12.93a1.72,1.72,0,0,0,0-1.53A2,2,0,0,0,130.66,66.05Z"/><rect class="cls-1" x="27.98" y="115.15" width="13.12" height="13.4"/><rect class="cls-1" x="54.22" y="115.15" width="13.12" height="13.4"/><rect class="cls-1" x="80.45" y="115.15" width="13.12" height="13.4"/><rect class="cls-1" x="106.65" y="115.15" width="13.12" height="13.4"/><rect class="cls-1" x="132.88" y="115.15" width="13.12" height="13.4"/></g></svg>