<svg version="1.2" xmlns="http://www.w3.org/2000/svg" xmlns:xlink="http://www.w3.org/1999/xlink" overflow="visible" preserveAspectRatio="none" viewBox="0 0 64 64" id="BGs_1569526306542" width="23" height="23"><g transform="translate(0, 0)"><defs><style>.cls-1_1569526306542{fill:#5b5b5b;}</style></defs><path d="M32,7.5C16.29,7.5,3.5,17.59,3.5,30,3.5,37.77,8.67,45.07,17,49.15l-3,7.93,10-5.46A36.14,36.14,0,0,0,32,52.5c15.71,0,28.5-10.09,28.5-22.5S47.71,7.5,32,7.5Zm0,42a32.39,32.39,0,0,1-7.82-1c-.2-.06-.21-.07-4.4,2.42l.81-3.24-.38-.18C12.14,43.9,6.5,36.69,6.5,30,6.5,19.43,18.18,10.5,32,10.5S57.5,19.43,57.5,30,45.82,49.5,32,49.5Z" class="cls-1_1569526306542" style="fill: rgb(255, 255, 255); stroke-width: 0px;" vector-effect="non-scaling-stroke"/><path d="M32,17.32c-6.34,0-11.5,4-11.5,9a7.31,7.31,0,0,0,1.23,4,1.68,1.68,0,0,0,2.17.54,1.59,1.59,0,0,0,.79-1,1.44,1.44,0,0,0-.19-1.18,4.35,4.35,0,0,1-.75-2.41c0-3.23,3.7-5.85,8.25-5.85s8.24,2.62,8.24,5.85A4.91,4.91,0,0,1,38.36,30,9.41,9.41,0,0,1,33.29,32a3.15,3.15,0,0,0-2.92,3v1.58a1.63,1.63,0,0,0,3.26,0V35.11h0a12.72,12.72,0,0,0,6.88-2.85,7.94,7.94,0,0,0,3-6C43.5,21.33,38.34,17.32,32,17.32Z" class="cls-1_1569526306542" style="fill: rgb(255, 255, 255); stroke-width: 0px;" vector-effect="non-scaling-stroke"/><path d="M32.05,38.43a2.13,2.13,0,1,0,2.12,2.12A2.12,2.12,0,0,0,32.05,38.43Z" class="cls-1_1569526306542" style="fill: rgb(255, 255, 255); stroke-width: 0px;" vector-effect="non-scaling-stroke"/></g></svg>