<svg id="Camada_1" data-name="Camada 1" xmlns="http://www.w3.org/2000/svg" viewBox="0 0 175 129"><defs><style>.cls-1{fill:#8c8c8c;}</style></defs><title>icone-questoes</title><g id="Camada_1-2" data-name="Camada 1-2"><rect class="cls-1" x="16.07" y="97.98" width="80.36" height="8.93"/><rect class="cls-1" x="16.07" y="80.13" width="80.36" height="8.93"/><rect class="cls-1" x="16.07" y="62.27" width="80.36" height="8.93"/><rect class="cls-1" x="16.07" y="44.41" width="80.36" height="8.93"/><path class="cls-1" d="M.45,2V127h174.1V2ZM9.38,118.07V28.79H165.63v89.28Z"/><path class="cls-1" d="M142,47.94a15.49,15.49,0,0,0-5-2.77,19.82,19.82,0,0,0-6.25-1,22.55,22.55,0,0,0-4.78.49,28.06,28.06,0,0,0-4.1,1.34,23.67,23.67,0,0,0-6.43,4.46l2,3.22a2,2,0,0,0,1.69,1,2.4,2.4,0,0,0,1.3-.67,18.84,18.84,0,0,1,2-1.38,16.46,16.46,0,0,1,3-1.52,14.62,14.62,0,0,1,4.46-.63,11.68,11.68,0,0,1,3.62.54,10.37,10.37,0,0,1,2.94,1.6,8.44,8.44,0,0,1,2,2.55,8,8,0,0,1,.71,3.35,9.21,9.21,0,0,1-1,4.46,12.87,12.87,0,0,1-2.41,3.35A25.38,25.38,0,0,1,132.59,69l-3.17,2.45A12.88,12.88,0,0,0,127,74.05a5.37,5.37,0,0,0-1,3.22v.44l.53,7.1h5.18l.8-6.52a4.46,4.46,0,0,1,1.25-2.58,28.52,28.52,0,0,1,2.59-2.33l3.26-2.45a18.78,18.78,0,0,0,3.26-3,15.53,15.53,0,0,0,2.41-4.15,14.76,14.76,0,0,0,1-5.58A13,13,0,0,0,141.83,48Z"/><path class="cls-1" d="M132.9,97.58a4.57,4.57,0,0,0-1.69-1.16,4.78,4.78,0,0,0-2.1-.45,5,5,0,0,0-2.1.45,4.8,4.8,0,0,0-1.65,1.16,4.43,4.43,0,0,0-1.12,1.7,5.56,5.56,0,0,0,1.12,5.89,4.56,4.56,0,0,0,1.65,1.12,5.8,5.8,0,0,0,2.1.4,5.6,5.6,0,0,0,2.1-.4,4.47,4.47,0,0,0,1.69-1.12,5.35,5.35,0,0,0,1.16-1.7,5.19,5.19,0,0,0,.4-2.09,5.37,5.37,0,0,0-.4-2.1A4.41,4.41,0,0,0,132.9,97.58Z"/></g></svg>