<svg id="Camada_1" data-name="Camada 1" xmlns="http://www.w3.org/2000/svg" viewBox="0 0 175 129"><defs><style>.cls-1{fill:#858585;}</style></defs><title>icone-duvidas-academicas</title><g id="Camada_1-2" data-name="Camada 1-2"><path class="cls-1" d="M87.52.81c-40.56,0-73.59,26-73.59,58.1,0,20,13.37,39,34.83,49.4L41,128.8l25.81-14.11A91.57,91.57,0,0,0,87.52,117c40.52,0,73.55-26,73.55-58S128,.81,87.52.81Zm0,108.43a85.09,85.09,0,0,1-20.21-2.59c-.51,0-.56,0-11.33,6.24l2.08-8.37-1-.46C36.23,94.8,21.65,76.3,21.65,58.91c0-27.29,30.16-50.37,65.87-50.37s65.83,23.12,65.83,50.37S123.19,109.24,87.52,109.24Z"/><path class="cls-1" d="M87.52,26.16c-16.37,0-29.69,10.32-29.69,23.13A18.8,18.8,0,0,0,61,59.65a4.28,4.28,0,0,0,7.68-1.2,3.76,3.76,0,0,0-.51-3.06A11,11,0,0,1,66.2,49.2c0-8.38,9.57-15.13,21.32-15.13s21.23,6.75,21.23,15.13a12.57,12.57,0,0,1-4.85,9.62A24.07,24.07,0,0,1,90.85,64a8.2,8.2,0,0,0-7.54,7.87v4.07a4.21,4.21,0,0,0,8.42,0v-3.8h0a33,33,0,0,0,17.72-7.35,20.59,20.59,0,0,0,7.77-15.5C117.17,36.52,103.85,26.16,87.52,26.16Z"/><path class="cls-1" d="M87.62,80.65a5.51,5.51,0,1,0,5.5,5.55h0a5.46,5.46,0,0,0-5.36-5.55Z"/></g></svg>