<svg id="Capa_1_1569606999356" data-name="Capa 1 1569606999356" xmlns="http://www.w3.org/2000/svg" viewBox="0 0 37 29.29"><defs><style>.cls-1,.cls-2{fill:#787675;}.cls-1{isolation:isolate;}</style></defs><title>Prancheta 1</title><path id="Caminho_79_1568820739269" data-name="Caminho 79 1568820739269" class="cls-1" d="M11.73,18.39l6.64,6.37a1.21,1.21,0,0,0,1.66,0l6.64-6.37L25,16.8l-4.64,4.45V.15H18v21.1L13.38,16.8Z"/><path class="cls-2" d="M32.88,15.55c0-.14,0-.27,0-.41a9.21,9.21,0,0,0-9.21-9.22h-.16V8.24h.16a6.92,6.92,0,0,1,6.91,6.82c0,.14,0,.28,0,.43l0,1.69,1.6.55a4.6,4.6,0,0,1-1.51,8.94h-23a4.61,4.61,0,0,1-.07-9.22l.34,0,1.75.11.57-1.65a4.61,4.61,0,0,1,4.33-3.11l.35,0v-2.3l-.35,0A6.89,6.89,0,0,0,8,15.18c-.14,0-.27,0-.42,0A6.91,6.91,0,0,0,7.58,29h23a6.89,6.89,0,0,0,2.26-13.41Z"/></svg>