<svg version="1.2" xmlns="http://www.w3.org/2000/svg" xmlns:xlink="http://www.w3.org/1999/xlink" overflow="visible" preserveAspectRatio="none" viewBox="0 0 25.472000122070312 17.413999557495117" height="19" width="28"><g transform="translate(1, 1)"><g transform="translate(0.003 0.001)" id="laptop_1568903647817"><g transform="translate(-0.003 -0.001)" id="laptop_1568903647817"><g id="Grupo_60_1568903647817"><path fill="#6a6a6a" transform="translate(0.003 -57.963)" d="M23.44,71.13a.12.12,0,0,0-.09-.041H.117a.12.12,0,0,0-.09.041.117.117,0,0,0-.029.1,2.82,2.82,0,0,0,3.075,2.152H20.395a2.818,2.818,0,0,0,3.074-2.154.119.119,0,0,0-.028-.093Zm-9.959,1.5H9.986v-.8h3.495Z" id="Caminho_38_1568903647817" vector-effect="non-scaling-stroke" style="fill: rgb(158, 157, 157);"/><path fill="#6a6a6a" transform="translate(-6.473 -16.712)" d="M8.99,28.874H27.432a.481.481,0,0,0,.483-.478V17.19a.481.481,0,0,0-.483-.478H8.99a.481.481,0,0,0-.483.478V28.4A.481.481,0,0,0,8.99,28.874ZM10.2,18.385H26.222V27.2H10.2Z" id="Caminho_39_1568903647817" vector-effect="non-scaling-stroke" style="fill: rgb(158, 157, 157);"/></g></g></g></g></svg>