<svg xmlns="http://www.w3.org/2000/svg" viewBox="0 0 45 45"><defs><style>.cls-1{fill:#929292;}</style></defs><title>Marcacao_2</title><g id="Camada_2" data-name="Camada 2"><g id="Camada_1-2" data-name="Camada 1"><path class="cls-1" d="M39.75,1A4.26,4.26,0,0,1,44,5.25v34.5A4.26,4.26,0,0,1,39.75,44H5.25A4.26,4.26,0,0,1,1,39.75V5.25A4.26,4.26,0,0,1,5.25,1h34.5m0-1H5.25A5.25,5.25,0,0,0,0,5.25v34.5A5.25,5.25,0,0,0,5.25,45h34.5A5.25,5.25,0,0,0,45,39.75V5.25A5.25,5.25,0,0,0,39.75,0Z"/><path class="cls-1" d="M12.9,15.17H11.09L10.5,9.43l.12-1.22H33.79l.12,1.22-.59,5.74H31.51l-.43-4.68H23.66V32.84l4.28.31V35H16.51V33.15l4.28-.31V10.49h-7.5Z"/></g></g></svg>