<svg xmlns="http://www.w3.org/2000/svg" viewBox="0 0 45 39"><defs><style>.cls-1{fill:none;stroke:#929292;stroke-miterlimit:10;stroke-width:2px;}.cls-2{fill:#929292;}</style></defs><title>Questao-componente</title><g id="Camada_2" data-name="Camada 2"><g id="Camada_2-2" data-name="Camada 2"><rect class="cls-1" x="1" y="1" width="43" height="37"/><line class="cls-1" x1="1" y1="9.5" x2="45" y2="9.5"/><line class="cls-1" x1="5.12" y1="15.86" x2="27.71" y2="15.86"/><line class="cls-1" x1="5.12" y1="21.19" x2="27.71" y2="21.19"/><line class="cls-1" x1="5.12" y1="26.53" x2="27.71" y2="26.53"/><line class="cls-1" x1="5.12" y1="31.86" x2="27.71" y2="31.86"/><path class="cls-2" d="M31.79,18.54a5.12,5.12,0,0,1,.67-.51,4.84,4.84,0,0,1,.78-.42,4.81,4.81,0,0,1,2-.39,4.62,4.62,0,0,1,1.43.21,3.18,3.18,0,0,1,1.1.62,2.74,2.74,0,0,1,.71,1,3.07,3.07,0,0,1,.26,1.27,3.24,3.24,0,0,1-.2,1.18,3.35,3.35,0,0,1-.5.87,3.92,3.92,0,0,1-.65.64l-.67.51a5.35,5.35,0,0,0-.54.46.93.93,0,0,0-.28.52l-.21,1.32H34.16L34,24.32a.25.25,0,0,1,0-.08v-.07a1.19,1.19,0,0,1,.2-.69,2.8,2.8,0,0,1,.49-.55c.2-.17.41-.34.64-.5A5.46,5.46,0,0,0,36,21.9a2.83,2.83,0,0,0,.5-.64,1.75,1.75,0,0,0,.19-.85,1.37,1.37,0,0,0-.12-.58,1.41,1.41,0,0,0-.33-.44,1.53,1.53,0,0,0-.52-.28A2,2,0,0,0,35,19a3,3,0,0,0-.87.11,4,4,0,0,0-.61.25c-.16.1-.3.18-.41.26a.65.65,0,0,1-.31.11.49.49,0,0,1-.47-.27Zm1.7,10.61a1.39,1.39,0,0,1,.1-.53,1.3,1.3,0,0,1,.29-.43,1.35,1.35,0,0,1,.44-.29,1.33,1.33,0,0,1,.54-.11,1.4,1.4,0,0,1,.53.11,1.42,1.42,0,0,1,.43.29,1.48,1.48,0,0,1,.29.43,1.39,1.39,0,0,1,.1.53,1.4,1.4,0,0,1-.1.54,1.62,1.62,0,0,1-.29.43,1.36,1.36,0,0,1-1,.38,1.4,1.4,0,0,1-1-.38,1.42,1.42,0,0,1-.29-.43A1.4,1.4,0,0,1,33.49,29.15Z"/></g></g></svg>