<svg version="1.2" xmlns="http://www.w3.org/2000/svg" xmlns:xlink="http://www.w3.org/1999/xlink" overflow="visible" preserveAspectRatio="none" viewBox="0 0 58 46" width="20" height="15"><g transform="translate(1, 1)"><defs><style>.cls-1_1568910274674{fill:#5b5b5b;}</style></defs><g id="Camada_2_1568910274674"><g id="Camada_1-2_1568910274674"><path d="M46,14.87A15,15,0,0,0,16.56,11H16.5A16.5,16.5,0,0,0,0,27.5,16.71,16.71,0,0,0,14,44H43A15.14,15.14,0,0,0,56,29,15,15,0,0,0,46,14.87ZM42,42H15A15.29,15.29,0,0,1,2,27c0-8.28,8-15,16.32-14h.05C20,7.24,24.38,2,30.79,2,38.44,2,43.93,8.52,44,16c5.41,1.87,10,6.43,10,12.36A13.8,13.8,0,0,1,42,42Z" class="cls-1_1568910274674" vector-effect="non-scaling-stroke" style="fill: rgb(46, 180, 209);"/><polygon points="20.28 31.21 15.71 24.65 14.07 25.79 18.64 32.35 19.79 33.99 21.43 32.85 41.93 18.55 40.79 16.91 20.28 31.21" class="cls-1_1568910274674" vector-effect="non-scaling-stroke" style="fill: rgb(46, 180, 209);"/></g></g></g></svg>