<svg width="24" height="22" viewBox="0 0 24 22" fill="none" xmlns="http://www.w3.org/2000/svg">
<path d="M0 0H24V4H0V0Z" fill="#A3A3A3"/>
<path opacity="0.43" d="M22 7H8V9H22V7Z" fill="#A3A3A3"/>
<path opacity="0.43" d="M2 8C2 9.10457 2.89543 10 4 10C5.10457 10 6 9.10457 6 8C6 6.89543 5.10457 6 4 6C2.89543 6 2 6.89543 2 8Z" fill="#606060"/>
<path opacity="0.43" d="M22 13H8V15H22V13Z" fill="#A3A3A3"/>
<path opacity="0.43" d="M2 14C2 15.1046 2.89543 16 4 16C5.10457 16 6 15.1046 6 14C6 12.8954 5.10457 12 4 12C2.89543 12 2 12.8954 2 14Z" fill="#606060"/>
<path opacity="0.43" d="M22 19H8V21H22V19Z" fill="#A3A3A3"/>
<path opacity="0.43" d="M2 20C2 21.1046 2.89543 22 4 22C5.10457 22 6 21.1046 6 20C6 18.8954 5.10457 18 4 18C2.89543 18 2 18.8954 2 20Z" fill="#606060"/>
</svg>
