<svg version="1.2" xmlns="http://www.w3.org/2000/svg" xmlns:xlink="http://www.w3.org/1999/xlink" overflow="visible" preserveAspectRatio="none" viewBox="0 0 515.3200073242188 515.3200073242188" xml:space="preserve" y="0px" x="0px" id="Capa_1_1570717648994" width="28" height="28"><g transform="translate(1, 1)"><g>
	<g>
		<g>
			<polygon points="149.718,320.825 179.662,350.768 235.272,295.159 235.272,491.932 278.048,491.932 278.048,295.159      333.658,350.768 363.602,320.825 256.66,213.883" vector-effect="non-scaling-stroke" style="fill: rgb(168, 168, 168);"/>
			<path d="M427.767,194.634c0-96.247-76.998-173.246-171.107-173.246S85.553,98.386,85.553,192.495v2.139     c-21.388,4.278-38.499,14.972-53.471,29.944C10.694,243.827,0,271.632,0,299.437c0,59.887,47.055,106.942,106.942,106.942     v-42.777c-36.36,0-64.165-27.805-64.165-64.165c0-17.11,6.416-32.082,19.249-44.916c12.833-12.833,27.805-19.249,47.055-19.249     h25.666l-4.278-25.666c-2.139-4.278-2.139-10.694-2.139-17.11c0-70.581,57.749-128.33,128.33-128.33s128.33,57.749,128.33,128.33     c0,6.416,0,12.833-2.139,17.11l-2.139,25.666h25.666c36.36,0,64.165,27.805,64.165,64.165s-27.805,64.165-64.165,64.165v42.777     c59.887,0,106.942-47.055,106.942-106.942C513.32,248.105,476.96,205.328,427.767,194.634L427.767,194.634z" vector-effect="non-scaling-stroke" style="fill: rgb(168, 168, 168);"/>
		</g>
	</g>
</g><g>
</g><g>
</g><g>
</g><g>
</g><g>
</g><g>
</g><g>
</g><g>
</g><g>
</g><g>
</g><g>
</g><g>
</g><g>
</g><g>
</g><g>
</g></g></svg>