<svg version="1.2" xmlns="http://www.w3.org/2000/svg" xmlns:xlink="http://www.w3.org/1999/xlink" overflow="visible" preserveAspectRatio="none" viewBox="0 0 514 514" xml:space="preserve" y="0px" x="0px" id="Capa_1_1570717823008" width="62" height="62"><g transform="translate(1, 1)"><style type="text/css">
	.st0_1570717823008{fill:#E9FFF2;}
	.st1_1570717823008{fill:#22D275;}
</style><circle r="256" cy="256" cx="256" class="st0_1570717823008" vector-effect="non-scaling-stroke"/><g>
	<g>
		<path d="M437.02,74.98C388.67,26.63,324.38,0,256,0C187.62,0,123.33,26.63,74.98,74.98C26.63,123.33,0,187.62,0,256    s26.63,132.67,74.98,181.02S187.62,512,256,512c68.38,0,132.67-26.63,181.02-74.98S512,324.38,512,256S485.37,123.33,437.02,74.98    z M256,482C131.38,482,30,380.62,30,256S131.38,30,256,30s226,101.38,226,226S380.62,482,256,482z" class="st1_1570717823008" vector-effect="non-scaling-stroke"/>
	</g>
</g><g>
	<g>
		<path d="M378.3,173.86c-5.86-5.86-15.36-5.86-21.21,0L224.63,306.32l-69.73-69.73c-5.86-5.86-15.35-5.86-21.21,0    s-5.86,15.35,0,21.21l80.33,80.33c2.93,2.93,6.77,4.39,10.61,4.39s7.68-1.46,10.61-4.39L378.3,195.07    C384.16,189.21,384.16,179.72,378.3,173.86z" class="st1_1570717823008" vector-effect="non-scaling-stroke"/>
	</g>
</g></g></svg>